<svg xmlns="http://www.w3.org/2000/svg" viewBox="0 0 64 64" fill="none">
  <rect width="64" height="64" rx="32" fill="#000"/>
  <path d="M38 16c1.7 4.3 4.9 7.1 10 8.1v7c-3.7-.1-6.9-1.1-9.8-3v12.9c0 7.2-4.9 11.9-11.5 11.9C20.7 53 16 48.8 16 42.9c0-6.5 5.2-10.8 11.7-10.8.9 0 1.8.1 2.7.3v7.2c-.8-.3-1.5-.4-2.2-.4-2.9 0-5 1.6-5 4.2 0 2.5 2 4.1 4.6 4.1 3 0 4.9-1.8 4.9-5.6V16h5.3z" fill="#25F4EE"/>
  <path d="M40 14c1.7 4.3 4.9 7.1 10 8.1v7c-3.7-.1-6.9-1.1-9.8-3v12.9C40.2 46.2 35.3 51 28.7 51 22.7 51 18 46.8 18 40.9c0-6.5 5.2-10.8 11.7-10.8.9 0 1.8.1 2.7.3v7.2c-.8-.3-1.5-.4-2.2-.4-2.9 0-5 1.6-5 4.2 0 2.5 2 4.1 4.6 4.1 3 0 4.9-1.8 4.9-5.6V14H40z" fill="#FE2C55" fill-opacity="0.85"/>
  <path d="M39 15c1.7 4.3 4.9 7.1 10 8.1v5.2c-3.6-.2-6.9-1.2-9.8-3v13.7C39.2 45.4 34.8 50 28.7 50 23 50 19 46 19 41c0-5.7 4.4-9.6 10-9.6 1 0 1.8.1 2.7.4v5.3c-.8-.2-1.4-.3-2.2-.3-3.4 0-5.8 2-5.8 4.9 0 3 2.2 4.9 5.1 4.9 3.5 0 5.7-2.1 5.7-6.3V15H39z" fill="#fff"/>
</svg>
